<mxfile host="app.diagrams.net" modified="2021-04-14T07:13:52.798Z" agent="5.0 (Windows NT 6.1; Win64; x64) AppleWebKit/537.36 (KHTML, like Gecko) Chrome/89.0.4389.114 Safari/537.36" etag="BfvsQBMUSrz3tn5j-aI1" version="14.5.8" type="github">
  <diagram name="Page-1" id="c4acf3e9-155e-7222-9cf6-157b1a14988f">
    <mxGraphModel dx="1422" dy="794" grid="1" gridSize="10" guides="1" tooltips="1" connect="1" arrows="1" fold="1" page="1" pageScale="1" pageWidth="2000" pageHeight="1100" background="#ffffff" math="0" shadow="0">
      <root>
        <mxCell id="0" />
        <mxCell id="1" parent="0" />
        <mxCell id="9BpzYwEU_yt87QVcHTHP-4" style="edgeStyle=orthogonalEdgeStyle;rounded=0;orthogonalLoop=1;jettySize=auto;html=1;entryX=0.5;entryY=0;entryDx=0;entryDy=0;" edge="1" parent="1" source="9BpzYwEU_yt87QVcHTHP-1" target="9BpzYwEU_yt87QVcHTHP-3">
          <mxGeometry relative="1" as="geometry" />
        </mxCell>
        <mxCell id="9BpzYwEU_yt87QVcHTHP-1" value="Client" style="ellipse;whiteSpace=wrap;html=1;" vertex="1" parent="1">
          <mxGeometry x="160" y="240" width="120" height="80" as="geometry" />
        </mxCell>
        <mxCell id="9BpzYwEU_yt87QVcHTHP-5" style="edgeStyle=orthogonalEdgeStyle;rounded=0;orthogonalLoop=1;jettySize=auto;html=1;" edge="1" parent="1" source="9BpzYwEU_yt87QVcHTHP-3" target="9BpzYwEU_yt87QVcHTHP-1">
          <mxGeometry relative="1" as="geometry" />
        </mxCell>
        <mxCell id="9BpzYwEU_yt87QVcHTHP-26" style="edgeStyle=orthogonalEdgeStyle;rounded=0;orthogonalLoop=1;jettySize=auto;html=1;entryX=0;entryY=0.25;entryDx=0;entryDy=0;" edge="1" parent="1" source="9BpzYwEU_yt87QVcHTHP-3" target="9BpzYwEU_yt87QVcHTHP-22">
          <mxGeometry relative="1" as="geometry" />
        </mxCell>
        <mxCell id="9BpzYwEU_yt87QVcHTHP-3" value="&lt;p style=&quot;line-height: 150%&quot;&gt;Dispatcher&lt;br&gt;Servlet&lt;/p&gt;" style="rounded=0;whiteSpace=wrap;html=1;rotation=0;direction=north;" vertex="1" parent="1">
          <mxGeometry x="380" y="150" width="170" height="260" as="geometry" />
        </mxCell>
        <mxCell id="9BpzYwEU_yt87QVcHTHP-11" value="Services" style="swimlane;fontStyle=0;childLayout=stackLayout;horizontal=1;startSize=26;fillColor=none;horizontalStack=0;resizeParent=1;resizeParentMax=0;resizeLast=0;collapsible=1;marginBottom=0;" vertex="1" parent="1">
          <mxGeometry x="840" y="261" width="140" height="52" as="geometry" />
        </mxCell>
        <mxCell id="9BpzYwEU_yt87QVcHTHP-12" value="User Service: Class" style="text;strokeColor=none;fillColor=none;align=left;verticalAlign=top;spacingLeft=4;spacingRight=4;overflow=hidden;rotatable=0;points=[[0,0.5],[1,0.5]];portConstraint=eastwest;" vertex="1" parent="9BpzYwEU_yt87QVcHTHP-11">
          <mxGeometry y="26" width="140" height="26" as="geometry" />
        </mxCell>
        <mxCell id="9BpzYwEU_yt87QVcHTHP-13" value="Repositories" style="swimlane;fontStyle=0;childLayout=stackLayout;horizontal=1;startSize=26;fillColor=none;horizontalStack=0;resizeParent=1;resizeParentMax=0;resizeLast=0;collapsible=1;marginBottom=0;" vertex="1" parent="1">
          <mxGeometry x="1050" y="261" width="140" height="52" as="geometry" />
        </mxCell>
        <mxCell id="9BpzYwEU_yt87QVcHTHP-14" value="User Rep: Class" style="text;strokeColor=none;fillColor=none;align=left;verticalAlign=top;spacingLeft=4;spacingRight=4;overflow=hidden;rotatable=0;points=[[0,0.5],[1,0.5]];portConstraint=eastwest;" vertex="1" parent="9BpzYwEU_yt87QVcHTHP-13">
          <mxGeometry y="26" width="140" height="26" as="geometry" />
        </mxCell>
        <mxCell id="9BpzYwEU_yt87QVcHTHP-17" style="edgeStyle=orthogonalEdgeStyle;rounded=0;orthogonalLoop=1;jettySize=auto;html=1;entryX=0;entryY=0.5;entryDx=0;entryDy=0;" edge="1" parent="1" source="9BpzYwEU_yt87QVcHTHP-12" target="9BpzYwEU_yt87QVcHTHP-14">
          <mxGeometry relative="1" as="geometry" />
        </mxCell>
        <mxCell id="9BpzYwEU_yt87QVcHTHP-22" value="Controllers" style="swimlane;fontStyle=0;childLayout=stackLayout;horizontal=1;startSize=26;fillColor=none;horizontalStack=0;resizeParent=1;resizeParentMax=0;resizeLast=0;collapsible=1;marginBottom=0;" vertex="1" parent="1">
          <mxGeometry x="630" y="261" width="140" height="78" as="geometry" />
        </mxCell>
        <mxCell id="9BpzYwEU_yt87QVcHTHP-23" value="User Controller: Class" style="text;strokeColor=none;fillColor=none;align=left;verticalAlign=top;spacingLeft=4;spacingRight=4;overflow=hidden;rotatable=0;points=[[0,0.5],[1,0.5]];portConstraint=eastwest;" vertex="1" parent="9BpzYwEU_yt87QVcHTHP-22">
          <mxGeometry y="26" width="140" height="26" as="geometry" />
        </mxCell>
        <mxCell id="9BpzYwEU_yt87QVcHTHP-24" value="App Controller: Class" style="text;strokeColor=none;fillColor=none;align=left;verticalAlign=top;spacingLeft=4;spacingRight=4;overflow=hidden;rotatable=0;points=[[0,0.5],[1,0.5]];portConstraint=eastwest;" vertex="1" parent="9BpzYwEU_yt87QVcHTHP-22">
          <mxGeometry y="52" width="140" height="26" as="geometry" />
        </mxCell>
        <mxCell id="9BpzYwEU_yt87QVcHTHP-27" style="edgeStyle=orthogonalEdgeStyle;rounded=0;orthogonalLoop=1;jettySize=auto;html=1;" edge="1" parent="1" source="9BpzYwEU_yt87QVcHTHP-23" target="9BpzYwEU_yt87QVcHTHP-12">
          <mxGeometry relative="1" as="geometry" />
        </mxCell>
      </root>
    </mxGraphModel>
  </diagram>
</mxfile>
